<svg xmlns="http://www.w3.org/2000/svg" viewBox="0 0 636.45 704.34"><title>Asset 2</title><g id="Layer_2" data-name="Layer 2"><g id="Layer_1-2" data-name="Layer 1"><path d="M635.77,456.13a116.73,116.73,0,0,0-20.45-60.66c-15.77-22.76-37.16-34.33-65.25-31.53-22.53,2.24-40.81,13.3-56.58,28.79-7,6.91-13.24,14.66-20,22.21-22.64-46.52-57.28-62.68-107.07-41,3.59-8.25,6.74-15.33,9.77-22.45,27.57-65,53.94-130.37,68.58-199.77,6.24-29.61,9.87-59.35,3.68-89.51-14.26-69.45-86.1-75-122.35-44.9-17.63,14.62-29.95,32.94-39.33,53.44-19.22,42-30,86.46-37.93,131.7-4,23-7.43,46.13-11.13,69.28-.5-.37-1.08-.57-1.21-.93-.39-1.14-.63-2.33-.91-3.5-11.31-47.22-24.8-93.75-45.49-137.85C179.27,106.41,166,85.16,144.41,70.25,132.2,61.79,118.83,57.54,104,58.66,65.6,61.58,32.56,93.91,25.78,134.45c-5.37,32.13-.83,63.3,8.32,94.05,15.4,51.73,40,99.29,67,145.68,12.18,20.93,25.13,41.42,38.19,62.86-2.66-.66-4.68-1.28-6.75-1.66-11.89-2.19-23.71-5.38-35.69-6.26-30.73-2.27-57,7.39-73.81,34.31-7.69,12.32-14,26.34-17.23,40.44-9.09,40.15-7,80.58,3,120.38,5.51,22,15.75,42.07,33.13,57.1,25.44,22,55.68,26.3,87.58,19.63,38.55-8.06,73-25.55,105-48.21,10.81-7.67,21.25-15.87,32-23.92,25.47,88.81,110.85,96.81,164.29,31.33,3,4.16,5.81,8.36,8.93,12.33,23.71,30.21,57.79,39.44,93.62,25.48,25.77-10,44.59-28.4,58.65-51.38C627.72,588.1,639.57,523.73,635.77,456.13ZM99.65,240.73C90.15,216,81.43,190.85,81.35,164c0-10.47,2.86-30.59,15.24-43,5.68-5.68,14.86-4.21,19.45.38,14.26,14.26,24.29,36.63,32.28,57.21,21.2,54.66,34.24,111.53,45,169,5.2,27.84,9.84,55.79,14.73,83.69l-1.71.53c-6-9-12.18-18-18.08-27.09C154.41,352.42,122.14,299.18,99.65,240.73ZM121.78,644.2a77.82,77.82,0,0,1-10.69,2.07c-21.91,2.47-34.87-5.74-43-27.29-9.35-24.81-10.47-50.76-9-76.75a161.86,161.86,0,0,1,6.57-37c4.76-16,15.39-21.76,31.86-19.53,16.81,2.28,32.2,8.67,47,16.63a370.57,370.57,0,0,1,94.83,73C204.33,606.71,167.18,632.48,121.78,644.2ZM288.87,403.59c-.72,1.68-1.7,3.24-2.56,4.85l-1.86-.47c1.8-24.16,3.29-48.35,5.46-72.47,4.53-50.49,10.64-100.78,21.48-150.36,7.09-32.45,14.87-64.77,30.38-94.45,4.88-9.33,11.37-18,18.16-26.07,3-3.54,8.32-6.06,13-7,8.94-1.81,14.24,2,17.15,10.67,4.9,14.68,3.85,29.79,2,44.7-5.63,46-19.22,90.1-36.22,132.87C334.8,298.93,311.34,351.06,288.87,403.59Zm137.41,79.53c-3,46.58-10.08,92.09-35.06,132.81-6.93,11.3-15.8,20.91-27.85,27.05-12.38,6.31-23.27,3.68-31.14-7.72-7-10.07-9.65-21.61-10.57-33.59-1.71-22.34,2.3-43.93,8.53-65.28,8.25-28.28,18.59-55.63,34.81-80.44,8-12.28,17.07-23.66,30-31.15,10.05-5.81,15.11-4.51,20.94,5.41,7.86,13.38,9.48,28.34,10.31,43.43C426.43,476.8,426.28,480,426.28,483.12ZM544.56,613.46a98.88,98.88,0,0,1-24.65,27.15c-16.47,12.4-30.45,7.9-39.32-10.84-6.93-14.64-8.51-30.45-6.93-46.25,4.69-47.08,19.31-91,45.51-130.5,7.44-11.2,15.8-21.46,26.46-29.92,8.62-6.84,17.06-3.71,22.63,6,9.43,16.37,12.27,38.15,10.63,57.95C575.54,531.85,568.93,573.16,544.56,613.46Z"/></g></g></svg>